<svg width="20" height="20" viewBox="0 0 20 20" fill="none" xmlns="http://www.w3.org/2000/svg">
<g clip-path="url(#clip0_3_305)">
<path d="M12.9166 0.833252H6.24996C5.09996 0.833252 4.16663 1.76659 4.16663 2.91659V17.0833C4.16663 18.2333 5.09996 19.1666 6.24996 19.1666H12.9166C14.0666 19.1666 15 18.2333 15 17.0833V2.91659C15 1.76659 14.0666 0.833252 12.9166 0.833252ZM9.58329 18.3333C8.89163 18.3333 8.33329 17.7749 8.33329 17.0833C8.33329 16.3916 8.89163 15.8333 9.58329 15.8333C10.275 15.8333 10.8333 16.3916 10.8333 17.0833C10.8333 17.7749 10.275 18.3333 9.58329 18.3333ZM13.3333 14.9999H5.83329V3.33325H13.3333V14.9999Z" fill="black"/>
</g>
<defs>
<clipPath id="clip0_3_305">
<rect width="20" height="20" fill="white"/>
</clipPath>
</defs>
</svg>
